<svg height="512pt" viewBox="0 0 512 512" width="512pt" xmlns="http://www.w3.org/2000/svg"><path d="M466.191 410.422l-20.668-7.176c11.57-9.164 19.012-23.32 19.012-39.191v-15.149c0-27.562-22.426-49.988-49.988-49.988s-49.988 22.426-49.988 49.988v15.149c0 15.87 7.445 30.027 19.015 39.191l-20.672 7.176c-13.257 4.605-24.402 13.05-32.382 23.82h-55.836v-22.035c0-29.004-18.41-54.883-45.809-64.394l-20.672-7.176c11.57-9.164 19.016-23.32 19.016-39.192v-15.148c0-27.567-22.426-49.988-49.989-49.988s-49.988 22.425-49.988 49.988v15.148c0 15.871 7.445 30.028 19.012 39.192l-20.668 7.176c-27.399 9.511-45.809 35.39-45.809 64.394v22.035H7.574A7.574 7.574 0 000 441.816v62.61A7.574 7.574 0 007.574 512h315.078c.34 0 .676-.031 1.008-.074a7.85 7.85 0 001.012.074h179.754a7.574 7.574 0 007.574-7.574v-29.61c0-29-18.406-54.879-45.809-64.394zm-86.484-61.516c0-19.21 15.629-34.84 34.84-34.84s34.84 15.63 34.84 34.84v15.149c0 19.21-15.63 34.84-34.84 34.84s-34.84-15.63-34.84-34.84zm-237.316-62.61c0-19.21 15.629-34.839 34.84-34.839 19.21 0 34.84 15.629 34.84 34.84v15.148c0 19.211-15.63 34.84-34.84 34.84-19.211 0-34.84-15.629-34.84-34.84zm50.73 65.138l7.36 2.554-23.25 40.34-23.25-40.34 7.359-2.554zm-98.195 60.773c0-22.559 14.32-42.687 35.629-50.086l8.86-3.074 31.253 54.234a7.573 7.573 0 0013.125 0l31.254-54.234 8.86 3.074c21.308 7.399 35.624 27.527 35.624 50.086v22.035H94.926zm-79.778 37.184h306.883a67.924 67.924 0 00-4.933 25.425v22.036H15.148zm481.704 47.46H332.246v-22.035c0-22.558 14.316-42.683 35.625-50.086l30.785-10.687h31.781l30.786 10.687c21.312 7.403 35.629 27.528 35.629 50.086zm0 0"/><path d="M464.031 54.531h-76.937a7.576 7.576 0 00-7.574 7.574 7.574 7.574 0 007.574 7.575h76.937c18.098 0 32.82 14.722 32.82 32.824v105.023c0 18.098-14.722 32.82-32.82 32.82H360.016a7.574 7.574 0 00-7.575 7.575v32.21l-37.562-37.566a7.572 7.572 0 00-5.356-2.218h-61.601c-18.098 0-32.824-14.723-32.824-32.82V102.5c0-18.098 14.722-32.82 32.824-32.82h103.762a7.574 7.574 0 007.574-7.575 7.574 7.574 0 00-7.574-7.574h-39.637V47.97c0-26.45-21.52-47.969-47.969-47.969H47.968C21.52 0 0 21.52 0 47.969v16.746a7.574 7.574 0 007.574 7.574 7.574 7.574 0 007.574-7.574V47.969c0-18.098 14.723-32.82 32.82-32.82h216.11c18.098 0 32.82 14.722 32.82 32.82v6.562h-48.976c-26.45 0-47.969 21.52-47.969 47.969v83.313H120.68a7.574 7.574 0 00-7.575 7.574v32.21l-37.562-37.566a7.572 7.572 0 00-5.356-2.219H47.97c-18.098 0-32.82-14.722-32.82-32.82V99.934a7.574 7.574 0 00-7.575-7.575A7.574 7.574 0 000 99.934v53.058c0 26.453 21.52 47.969 47.969 47.969h19.078l48.277 48.277a7.593 7.593 0 008.254 1.64 7.576 7.576 0 004.676-6.995V200.96h71.7v6.566c0 26.45 21.519 47.965 47.968 47.965h58.465l48.273 48.278a7.572 7.572 0 0012.93-5.356v-42.922h96.441c26.45 0 47.969-21.515 47.969-47.965V102.5c0-26.45-21.52-47.969-47.969-47.969zm0 0"/></svg>