<svg version="1.1" id="Capa_1" xmlns="http://www.w3.org/2000/svg" x="0" y="0" viewBox="0 0 496 496" xml:space="preserve"><path d="M112 400c-17.648 0-32 14.352-32 32s14.352 32 32 32 32-14.352 32-32-14.352-32-32-32zm0 48c-8.824 0-16-7.176-16-16s7.176-16 16-16 16 7.176 16 16-7.176 16-16 16zm272-48c-17.648 0-32 14.352-32 32s14.352 32 32 32 32-14.352 32-32-14.352-32-32-32zm0 48c-8.824 0-16-7.176-16-16s7.176-16 16-16 16 7.176 16 16-7.176 16-16 16zM280 96c-8.824 0-16-7.176-16-16s7.176-16 16-16 16 7.176 16 16h16c0-14.864-10.232-27.288-24-30.864V32h-16v17.136c-13.768 3.576-24 16-24 30.864 0 17.648 14.352 32 32 32 8.824 0 16 7.176 16 16s-7.176 16-16 16-16-7.176-16-16h-16c0 14.864 10.232 27.288 24 30.864V176h16v-17.136c13.768-3.576 24-16 24-30.864 0-17.648-14.352-32-32-32z"/><path d="M462.568 299.656l-18.728-3.12c-23.168-47.528-64.632-84.08-114.056-101.368 3.56-1.96 7.064-4.064 10.416-6.456l-9.28-13.032c-15 10.672-32.6 16.32-50.92 16.32-48.52 0-88-39.48-88-88s39.48-88 88-88 88 39.48 88 88c0 18.312-5.648 35.92-16.328 50.928l13.032 9.28C377.328 146.48 384 125.656 384 104 384 46.656 337.344 0 280 0S176 46.656 176 104c0 35.088 17.512 66.112 44.208 84.952-52.68 11.832-98.96 44.808-127.272 91.472l-46.952 8.536C27.8 292.272 13.2 304.208 5.648 320h-1.16l-1.496 6.104c-.056.24-.072.488-.128.728C1.088 332.296 0 338.056 0 344.056V456h52.712c9.52 23.424 32.488 40 59.288 40s49.768-16.576 59.288-40h153.424c9.52 23.424 32.488 40 59.288 40s49.768-16.576 59.288-40H496V339.112c0-19.632-14.056-36.224-33.432-39.456zM16 351.008c0-5.024.432-10.048 1.272-15.008H24c4.416 0 8 3.592 8 8v8c0 4.408-3.584 8-8 8h-8v-8.992zM48 432c0 2.712.224 5.376.552 8H16v-32h36.712A63.562 63.562 0 0048 432zm64 48c-26.472 0-48-21.528-48-48s21.528-48 48-48 48 21.528 48 48-21.528 48-48 48zm272 0c-26.472 0-48-21.528-48-48s21.528-48 48-48 48 21.528 48 48-21.528 48-48 48zm96-40h-32.552c.328-2.624.552-5.288.552-8a63.562 63.562 0 00-4.712-24H480v32zm0-48h-46.12c-11.744-14.608-29.72-24-49.88-24-20.16 0-38.144 9.392-49.88 24H296v16h28.712A63.562 63.562 0 00320 432c0 2.712.224 5.376.552 8H175.448c.328-2.624.552-5.288.552-8a63.562 63.562 0 00-4.712-24H280v-16H161.88c-11.744-14.608-29.72-24-49.88-24-20.16 0-38.144 9.392-49.88 24H16v-16h8c13.232 0 24-10.768 24-24v-8c0-13.176-10.672-23.888-23.824-23.984 5.88-7.776 14.48-13.456 24.672-15.312l47.696-8.672 5.656.264 2.44-4.208c29.216-50.56 81.072-84.384 138.912-90.808C254.912 205.552 267.16 208 280 208c8.688 0 17.224-1.12 25.496-3.224 55.096 12.72 102.024 50.888 125.744 102.488l2.032 4.424 4.856.232 21.816 3.512A23.934 23.934 0 01480 339.112V392z"/><path d="M398.512 284.408C368.016 241.576 318.432 216 265.872 216c-55.368 0-106.432 27.752-136.584 74.232L128 292.224V328h272v-41.512l-1.488-2.08zM176 312h-32v-15.008c.232-.336.48-.656.712-.992H168c4.416 0 8 3.592 8 8v8zm112 0h-96v-8c0-13.232-10.768-24-24-24h-10.624c27.576-30.368 66.656-48 108.496-48 7.464 0 14.848.632 22.128 1.752V312zm96 0h-80v-74.88c31.712 8.56 60.112 27.584 80 54.52V312zM208 96h16v16h-16zm128 0h16v16h-16z"/></svg>