<svg xmlns="http://www.w3.org/2000/svg" viewBox="0 0 64 64" width="512" height="512"><g id="Money-4" data-name="Money"><path d="M55.15 43.9a4.007 4.007 0 00-5.46-1.47l-9.75 5.63a3.982 3.982 0 00-2.26-1.63l-14.92-3.99a6.957 6.957 0 00-3.51-.03L14 43.72V43a1 1 0 00-1-1h-3v-1a1 1 0 00-1-1H3a1 1 0 00-1 1v20a1 1 0 001 1h6a1 1 0 001-1v-1h3a1 1 0 001-1v-.38l1.29.64a7.031 7.031 0 003.13.74h14.97a6.93 6.93 0 003.5-.94l16.8-9.7a4.009 4.009 0 001.46-5.46zM8 60H4V42h4zm4-2h-2V44h2zm40.69-10.37l-16.8 9.7a4.982 4.982 0 01-2.5.67H18.42a4.956 4.956 0 01-2.24-.53L14 56.38v-10.6l5.73-1.43a4.964 4.964 0 012.51.02l14.92 4a1.991 1.991 0 01.48 3.66 1.95 1.95 0 01-1.51.2l-11.93-3.2a1 1 0 00-.52 1.94l11.93 3.19a4.072 4.072 0 001.04.14 3.916 3.916 0 001.99-.54 3.975 3.975 0 001.87-2.43 4.118 4.118 0 00.11-1.35l10.07-5.81a2.025 2.025 0 012.72.73 2 2 0 01-.72 2.73zM61 6h-6a1 1 0 00-1 1v1h-3a1 1 0 00-1 1v.38l-1.29-.65A7.181 7.181 0 0045.58 8H30.61a7.078 7.078 0 00-3.5.93l-16.8 9.71a4 4 0 004 6.93l1.59-.92A10.85 10.85 0 0015 29a11 11 0 1019.47-7h.96l.96 1.6A7.037 7.037 0 0042.4 27h1.11a6.939 6.939 0 004.9-2H50a1 1 0 001 1h3v1a1 1 0 001 1h6a1 1 0 001-1V7a1 1 0 00-1-1zM35 29a9 9 0 11-7.55-8.87A3.595 3.595 0 0030.66 22h.97A9.039 9.039 0 0135 29zm15-6h-2a1.033 1.033 0 00-.71.29l-.24.25A4.976 4.976 0 0143.51 25H42.4a5.023 5.023 0 01-4.29-2.43l-1.25-2.08A.99.99 0 0036 20h-5.34a1.743 1.743 0 01-1.26-.55 1.383 1.383 0 01-.4-1.04A1.508 1.508 0 0130.5 17H40a1 1 0 000-2h-9.5a3.455 3.455 0 00-3.46 3.05c-.35-.03-.69-.05-1.04-.05a10.994 10.994 0 00-7.08 2.59l-5.61 3.24a2.025 2.025 0 01-2.72-.73 2 2 0 01.72-2.73l16.8-9.7a5.009 5.009 0 012.5-.67h14.97a5.177 5.177 0 012.24.52l2.18 1.1zm4 1h-2V10h2zm6 2h-4V8h4z"/><path d="M25 26h2a1 1 0 011 1 1 1 0 002 0 3 3 0 00-3-3v-1a1 1 0 00-2 0v1a3 3 0 000 6h2a1 1 0 010 2h-2a1 1 0 01-1-1 1 1 0 00-2 0 3 3 0 003 3v1a1 1 0 002 0v-1a3 3 0 000-6h-2a1 1 0 010-2z"/></g></svg>