<?xml version="1.0"?>
<svg xmlns="http://www.w3.org/2000/svg" viewBox="0 0 64 64" width="512" height="512"><g id="Money-4" data-name="Money"><path d="M55.15,43.9a4.007,4.007,0,0,0-5.46-1.47l-9.75,5.63a3.982,3.982,0,0,0-2.26-1.63L22.76,42.44a6.957,6.957,0,0,0-3.51-.03L14,43.72V43a1,1,0,0,0-1-1H10V41a1,1,0,0,0-1-1H3a1,1,0,0,0-1,1V61a1,1,0,0,0,1,1H9a1,1,0,0,0,1-1V60h3a1,1,0,0,0,1-1v-.38l1.29.64a7.031,7.031,0,0,0,3.13.74H33.39a6.93,6.93,0,0,0,3.5-.94l16.8-9.7A4.009,4.009,0,0,0,55.15,43.9ZM8,60H4V42H8Zm4-2H10V44h2ZM52.69,47.63l-16.8,9.7a4.982,4.982,0,0,1-2.5.67H18.42a4.956,4.956,0,0,1-2.24-.53L14,56.38V45.78l5.73-1.43a4.964,4.964,0,0,1,2.51.02l14.92,4a1.991,1.991,0,0,1,.48,3.66,1.95,1.95,0,0,1-1.51.2L24.2,49.03a1,1,0,0,0-.52,1.94l11.93,3.19a4.072,4.072,0,0,0,1.04.14,3.916,3.916,0,0,0,1.99-.54,3.975,3.975,0,0,0,1.87-2.43,4.118,4.118,0,0,0,.11-1.35l10.07-5.81a2.025,2.025,0,0,1,2.72.73A2,2,0,0,1,52.69,47.63Z"/><path d="M61,6H55a1,1,0,0,0-1,1V8H51a1,1,0,0,0-1,1v.38l-1.29-.65A7.181,7.181,0,0,0,45.58,8H30.61a7.078,7.078,0,0,0-3.5.93l-16.8,9.71a4,4,0,0,0,4,6.93l1.59-.92A10.85,10.85,0,0,0,15,29a11,11,0,1,0,19.47-7h.96l.96,1.6A7.037,7.037,0,0,0,42.4,27h1.11a6.939,6.939,0,0,0,4.9-2H50a1,1,0,0,0,1,1h3v1a1,1,0,0,0,1,1h6a1,1,0,0,0,1-1V7A1,1,0,0,0,61,6ZM35,29a9,9,0,1,1-7.55-8.87A3.595,3.595,0,0,0,30.66,22h.97A9.039,9.039,0,0,1,35,29Zm15-6H48a1.033,1.033,0,0,0-.71.29l-.24.25A4.976,4.976,0,0,1,43.51,25H42.4a5.023,5.023,0,0,1-4.29-2.43l-1.25-2.08A.99.99,0,0,0,36,20H30.66a1.743,1.743,0,0,1-1.26-.55,1.383,1.383,0,0,1-.4-1.04A1.508,1.508,0,0,1,30.5,17H40a1,1,0,0,0,0-2H30.5a3.455,3.455,0,0,0-3.46,3.05c-.35-.03-.69-.05-1.04-.05a10.994,10.994,0,0,0-7.08,2.59l-5.61,3.24a2.025,2.025,0,0,1-2.72-.73,2,2,0,0,1,.72-2.73l16.8-9.7a5.009,5.009,0,0,1,2.5-.67H45.58a5.177,5.177,0,0,1,2.24.52L50,11.62Zm4,1H52V10h2Zm6,2H56V8h4Z"/><path d="M25,26h2a1,1,0,0,1,1,1,1,1,0,0,0,2,0,3,3,0,0,0-3-3V23a1,1,0,0,0-2,0v1a3,3,0,0,0,0,6h2a1,1,0,0,1,0,2H25a1,1,0,0,1-1-1,1,1,0,0,0-2,0,3,3,0,0,0,3,3v1a1,1,0,0,0,2,0V34a3,3,0,0,0,0-6H25a1,1,0,0,1,0-2Z"/></g></svg>
